<svg id="レイヤー_1" data-name="レイヤー 1" xmlns="http://www.w3.org/2000/svg" viewBox="0 0 180 64"><path d="M4.05,8.9V62.56H0V2.73H4.54L42.22,55.42V2.73h4.06V62.56h-4Z"/><path d="M76.34,60.07a13.34,13.34,0,0,1-10,3.93c-7.7,0-12.81-4.49-12.81-10.83,0-6,5-10.74,12.89-10.74a13.64,13.64,0,0,1,9.8,3.68v-.64c0-6.73-3.48-8.9-8.67-8.9a34.07,34.07,0,0,0-7.53,1l-.73-3a35.44,35.44,0,0,1,9.07-1.21c7.94,0,11.51,4.66,11.51,11.63V62.56H76.34Zm0-6.9c0-4.33-3.72-7.86-9.48-7.86s-9.4,3.53-9.4,7.86,3.57,7.94,9.4,7.94C72.37,61.11,76.34,57.66,76.34,53.17Z"/><path d="M94.66,48l-3.24,2.81V62.56H87.77V0h3.65V46.28l13.94-12h5l-13,11.3,13.93,17h-4.62Z"/><path d="M130,64c-9.57,0-16-7.14-16-15.64a15.28,15.28,0,0,1,30.55-.64v.72H117.84c.08,7.14,5.27,12.35,12.16,12.35a16.56,16.56,0,0,0,11.5-4.89l2.19,2.57A19.51,19.51,0,0,1,130,64ZM118.16,45.39h22.21a11.26,11.26,0,0,0-22.21,0Z"/><path d="M176.43,57.26a15.2,15.2,0,0,1-27.71-8.9A15.3,15.3,0,0,1,164,33a15.09,15.09,0,0,1,12.4,6.58V0H180V62.56h-3.57Zm-12-21.09a11.93,11.93,0,0,0-11.83,12.19,11.91,11.91,0,1,0,11.83-12.19Z"/></svg>